<svg version="1.0" xmlns="http://www.w3.org/2000/svg"
 width="500.000000pt" height="500.000000pt" viewBox="0 0 500.000000 500.000000"
 preserveAspectRatio="xMidYMid meet">

<g transform="translate(0.000000,500.000000) scale(0.100000,-0.100000)"
fill="#000000" stroke="none">
<path d="M2370 4259 c-199 -14 -385 -64 -615 -164 -358 -156 -667 -440 -848
-779 -109 -206 -160 -346 -199 -551 -33 -173 -33 -476 1 -650 38 -200 86 -355
139 -454 13 -24 19 -41 14 -37 -6 3 -14 1 -18 -5 -4 -8 -3 -9 4 -5 7 4 12 2
12 -4 0 -6 4 -9 8 -6 11 6 85 -131 78 -143 -3 -5 2 -15 12 -22 16 -13 16 -12
2 6 -14 20 -14 20 7 1 12 -10 22 -21 21 -25 0 -3 1 -9 2 -13 1 -5 3 -14 4 -20
1 -7 8 -12 15 -10 7 1 10 -2 7 -7 -4 -5 0 -11 6 -14 9 -3 7 -10 -7 -21 -20
-17 -20 -17 1 -7 27 13 34 6 28 -28 -4 -19 0 -32 12 -42 11 -8 15 -9 10 -1 -4
6 -2 12 3 12 11 0 15 -13 12 -37 -3 -20 20 -26 38 -9 15 14 18 14 18 1 0 -8
-4 -12 -9 -9 -4 3 -8 -3 -8 -14 0 -25 175 -196 191 -186 7 4 10 3 6 -2 -3 -5
25 -32 61 -59 37 -27 67 -47 67 -45 1 3 19 -9 40 -26 51 -40 235 -144 255
-144 9 0 20 -4 26 -9 11 -11 156 -63 249 -90 182 -52 271 -64 480 -65 180 0
213 3 329 27 186 40 358 99 504 173 141 72 253 144 246 156 -3 5 -2 7 3 6 15
-4 54 23 47 34 -4 7 -2 8 5 4 23 -15 247 194 237 220 -3 9 -1 12 4 9 14 -9 73
52 64 66 -4 8 -3 9 4 5 15 -9 15 7 1 21 -9 9 -6 11 12 7 13 -2 18 -2 12 2 -19
8 -16 28 7 49 19 17 20 17 20 1 0 -9 -4 -14 -10 -11 -5 3 -10 1 -10 -4 0 -17
18 -13 28 6 7 11 6 23 -1 35 -9 13 -8 21 2 30 12 11 13 10 8 -4 -3 -10 -2 -20
4 -23 5 -4 9 -3 8 2 -3 20 2 34 11 28 5 -3 7 -13 4 -23 -5 -15 -5 -15 6 1 6 9
8 22 4 29 -5 8 -2 9 11 4 15 -5 16 -4 5 9 -10 11 -15 13 -20 4 -6 -8 -9 -8
-14 0 -4 6 0 14 8 17 9 3 14 10 11 14 -3 5 4 11 15 15 11 3 20 11 20 16 0 6
-4 7 -10 4 -6 -3 -7 1 -4 9 3 9 10 14 14 11 4 -3 7 3 6 13 0 9 5 16 12 14 8
-1 11 2 8 7 -8 12 14 61 26 61 5 0 6 5 3 10 -3 6 -2 10 3 10 5 0 9 6 9 13 1 6
19 57 41 112 100 250 148 572 123 820 -27 269 -79 444 -203 690 -102 203 -267
409 -447 559 -71 59 -316 226 -332 226 -4 0 -45 17 -91 39 -114 53 -274 106
-391 131 -80 16 -347 44 -367 39 -3 -1 -52 -5 -110 -10z m120 -110 c0 -5 -7
-9 -15 -9 -15 0 -20 12 -9 23 8 8 24 -1 24 -14z m-200 -24 c0 -8 -7 -15 -15
-15 -16 0 -20 12 -8 23 11 12 23 8 23 -8z m510 -31 c0 -8 -4 -12 -10 -9 -5 3
-10 10 -10 16 0 5 5 9 10 9 6 0 10 -7 10 -16z m-131 -13 c10 -7 6 -11 -16 -15
-43 -10 -107 -68 -132 -119 -27 -56 -28 -144 -2 -195 38 -73 126 -132 197
-132 21 0 24 -5 24 -34 0 -34 -2 -35 -45 -42 -91 -13 -199 23 -263 89 -35 36
-72 128 -72 180 0 61 30 137 71 182 47 51 87 72 160 84 30 5 56 9 59 10 3 0
11 -3 19 -8z m-548 -42 c7 -14 21 -19 56 -19 45 0 45 0 38 -27 -4 -16 -7 -52
-7 -82 l2 -54 -37 6 c-27 5 -43 1 -64 -13 -37 -27 -46 -25 -54 13 -4 19 -22
45 -43 64 l-37 32 38 16 c21 8 40 21 42 28 21 60 25 66 40 61 9 -4 20 -15 26
-25z m834 -29 c4 -11 18 -26 33 -34 l26 -13 -23 -8 c-12 -4 -27 -18 -33 -31
-13 -27 -28 -32 -28 -9 0 8 -14 24 -32 35 l-31 19 26 12 c15 7 29 20 32 31 8
24 22 23 30 -2z m233 2 c2 -7 -3 -12 -12 -12 -9 0 -16 7 -16 16 0 17 22 14 28
-4z m-1354 -13 c-3 -5 -10 -7 -15 -3 -5 3 -7 10 -3 15 3 5 10 7 15 3 5 -3 7
-10 3 -15z m-79 -134 c10 -25 25 -40 50 -51 36 -15 39 -34 6 -34 -21 0 -42
-23 -60 -65 l-13 -30 -15 37 c-10 26 -26 42 -55 56 l-41 19 39 19 c24 12 45
32 54 51 8 18 16 33 17 33 2 0 9 -16 18 -35z m1655 -10 l23 -25 -23 -25 -24
-25 -28 27 -28 26 23 23 c29 28 29 28 57 -1z m-1865 -5 c-3 -5 -10 -10 -16
-10 -5 0 -9 5 -9 10 0 6 7 10 16 10 8 0 12 -4 9 -10z m1250 -50 l-18 -20 -24
22 -24 22 23 18 c22 16 24 16 42 -2 19 -19 19 -20 1 -40z m755 -5 c0 -8 -4
-15 -10 -15 -5 0 -10 7 -10 15 0 8 5 15 10 15 6 0 10 -7 10 -15z m-386 -37
c59 -17 139 -101 157 -164 30 -105 6 -212 -67 -292 -54 -61 -96 -82 -165 -82
-66 0 -126 28 -174 82 -134 147 -106 361 57 442 58 29 124 34 192 14z m-1264
-73 c0 -8 -4 -15 -10 -15 -5 0 -10 7 -10 15 0 8 5 15 10 15 6 0 10 -7 10 -15z
m-465 -16 c4 -11 18 -25 33 -30 l26 -10 -26 -22 c-14 -12 -30 -31 -36 -42 -10
-19 -11 -18 -22 7 -7 14 -23 31 -37 37 -25 11 -23 31 3 31 8 0 20 11 26 25 14
30 24 32 33 4z m2206 -35 c11 -41 17 -48 55 -65 24 -10 44 -24 44 -32 0 -7
-18 -23 -39 -35 -35 -20 -40 -27 -46 -72 -4 -28 -11 -50 -17 -50 -5 0 -25 12
-44 26 -29 23 -40 25 -78 20 -54 -8 -61 0 -45 54 11 37 10 45 -10 81 -13 22
-21 43 -18 46 3 3 27 7 53 8 37 3 54 10 78 34 17 17 36 31 43 31 7 0 18 -21
24 -46z m-1431 -4 c0 -5 -4 -10 -10 -10 -5 0 -10 5 -10 10 0 6 5 10 10 10 6 0
10 -4 10 -10z m0 -45 c0 -8 -4 -15 -10 -15 -5 0 -10 7 -10 15 0 8 5 15 10 15
6 0 10 -7 10 -15z m-548 -109 c-5 -92 15 -156 63 -209 97 -105 277 -102 373 7
31 36 32 36 32 11 0 -39 -44 -118 -86 -155 -56 -49 -110 -70 -181 -70 -233 -1
-377 278 -233 453 17 20 32 37 33 37 2 0 1 -33 -1 -74z m-462 18 c0 -14 -12
-19 -23 -8 -9 9 4 35 14 28 5 -3 9 -12 9 -20z m2628 -5 c-2 -6 -8 -10 -13 -10
-5 0 -11 4 -13 10 -2 6 4 11 13 11 9 0 15 -5 13 -11z m-1845 -5 c3 -3 3 -12 0
-20 -4 -11 -9 -12 -19 -3 -8 6 -11 15 -8 20 6 10 18 12 27 3z m500 -39 c7 -16
-8 -29 -23 -20 -10 6 -2 35 10 35 4 0 10 -7 13 -15z m227 -5 c0 -5 -4 -10 -10
-10 -5 0 -10 5 -10 10 0 6 5 10 10 10 6 0 10 -4 10 -10z m-1610 -45 c0 -8 -7
-15 -15 -15 -8 0 -15 7 -15 15 0 8 7 15 15 15 8 0 15 -7 15 -15z m370 -5 c0
-5 -4 -10 -10 -10 -5 0 -10 5 -10 10 0 6 5 10 10 10 6 0 10 -4 10 -10z m-191
-19 c16 -28 -14 -51 -36 -28 -13 13 -14 19 -3 31 17 21 27 20 39 -3z m2647 8
c3 -6 1 -16 -5 -22 -9 -9 -14 -8 -21 3 -9 15 -4 30 10 30 5 0 12 -5 16 -11z
m-1235 -116 c27 -7 24 -20 -6 -27 -14 -4 -31 -18 -37 -31 -14 -30 -24 -32 -31
-5 -3 11 -20 26 -38 34 l-33 14 30 15 c17 9 36 28 43 43 l12 27 20 -32 c11
-18 29 -35 40 -38z m-355 -22 c-9 -14 -33 -14 -41 -1 -4 6 -1 18 6 26 11 13
14 13 27 0 8 -8 11 -19 8 -25z m1310 -8 c-10 -10 -19 5 -10 18 6 11 8 11 12 0
2 -7 1 -15 -2 -18z m192 16 c-2 -6 -8 -10 -13 -10 -5 0 -11 4 -13 10 -2 6 4
11 13 11 9 0 15 -5 13 -11z m-2395 -63 l32 -14 -31 -11 c-18 -7 -37 -25 -46
-44 l-15 -32 -17 33 c-9 18 -29 38 -44 43 l-27 11 26 13 c14 8 34 26 44 41
l18 27 14 -26 c7 -15 28 -33 46 -41z m-448 14 c0 -22 -29 -18 -33 3 -3 14 1
18 15 15 10 -2 18 -10 18 -18z m2456 -24 c-12 -14 -15 -14 -28 0 -12 12 -13
17 -2 30 11 13 14 13 27 0 12 -12 13 -18 3 -30z m569 25 c0 -6 -4 -13 -10 -16
-5 -3 -10 1 -10 9 0 9 5 16 10 16 6 0 10 -4 10 -9z m-931 -48 c1 -7 -8 -13
-19 -13 -23 0 -25 12 -8 43 11 21 11 21 19 2 4 -11 8 -26 8 -32z m930 -98
c122 -128 173 -224 211 -390 23 -100 29 -241 14 -309 -6 -29 -8 -26 -24 39 -9
39 -14 86 -11 105 9 55 4 146 -8 166 -9 17 -10 17 -9 -6 2 -30 -27 -100 -41
-100 -6 0 -15 19 -21 43 -47 182 -135 445 -146 435 -1 -2 13 -55 33 -118 61
-198 85 -343 63 -378 -9 -14 -10 -13 -5 5 5 19 3 22 -11 16 -13 -5 -16 -3 -11
10 4 10 2 16 -5 14 -35 -7 -94 145 -108 280 -12 112 -13 263 -1 263 5 0 41
-34 80 -75z m-3003 -224 c-8 -58 -24 -136 -36 -174 -20 -64 -22 -67 -50 -65
-17 1 -30 8 -30 16 0 7 4 11 9 8 5 -4 7 2 4 13 -5 21 16 135 53 283 26 105 28
122 14 97 -11 -18 -93 -303 -105 -359 -3 -19 -13 -50 -21 -68 -13 -29 -17 -31
-30 -17 -8 8 -18 31 -21 51 -4 24 -9 31 -14 22 -12 -17 -11 -101 0 -131 6 -16
3 -50 -12 -113 l-21 -89 -9 60 c-21 145 21 379 89 504 38 71 96 151 153 215
l36 39 3 -93 c1 -51 -4 -141 -12 -199z m2156 144 c24 -39 57 -99 73 -135 27
-60 30 -77 35 -215 4 -135 7 -153 28 -182 27 -39 28 -47 1 -32 -42 22 -58 84
-57 214 1 144 -12 189 -101 334 -63 104 -76 134 -65 153 5 7 14 -3 24 -28 10
-22 37 -71 62 -109z m636 113 c-6 -18 -28 -21 -28 -4 0 9 7 16 16 16 9 0 14
-5 12 -12z m-112 -19 c10 -17 -13 -36 -27 -22 -12 12 -4 33 11 33 5 0 12 -5
16 -11z m-2506 -13 c0 -8 -4 -17 -9 -21 -12 -7 -24 12 -16 25 9 15 25 12 25
-4z m1108 -33 c-10 -12 -14 -12 -26 1 -13 13 -13 17 -2 31 13 16 15 15 27 -1
10 -13 10 -21 1 -31z m283 -6 c-13 -13 -26 -3 -16 12 3 6 11 8 17 5 6 -4 6
-10 -1 -17z m-1280 0 c-1 -12 -15 -9 -19 4 -3 6 1 10 8 8 6 -3 11 -8 11 -12z
m1538 -1 c17 -20 -13 -43 -34 -26 -12 10 -13 16 -4 26 6 8 15 14 19 14 4 0 13
-6 19 -14z m611 -1 c10 -12 10 -18 -1 -32 -7 -10 -15 -20 -16 -22 -2 -2 -12 4
-23 14 -19 17 -19 19 -4 37 21 22 28 22 44 3z m-1741 -101 c-14 -14 -17 -14
-29 0 -10 13 -10 19 0 32 12 14 15 14 29 0 14 -15 14 -17 0 -32z m719 24 c-6
-18 -28 -21 -28 -4 0 9 7 16 16 16 9 0 14 -5 12 -12z m-1278 -18 c0 -5 -4 -10
-10 -10 -5 0 -10 5 -10 10 0 6 5 10 10 10 6 0 10 -4 10 -10z m214 -47 c-9 -96
-34 -155 -90 -209 -100 -98 -104 -52 -8 84 76 108 97 142 92 147 -2 3 -18 -13
-34 -34 -16 -22 -64 -81 -106 -131 -43 -51 -78 -96 -78 -101 0 -5 -5 -9 -11
-9 -8 0 -7 6 2 17 13 15 12 15 -8 5 -12 -7 -27 -20 -33 -30 -19 -30 1 59 24
108 28 60 90 119 173 163 37 20 71 37 75 37 3 0 4 -21 2 -47z m2316 37 c0 -5
-4 -10 -10 -10 -5 0 -10 5 -10 10 0 6 5 10 10 10 6 0 10 -4 10 -10z m-1060
-15 c0 -8 -4 -15 -10 -15 -5 0 -10 7 -10 15 0 8 5 15 10 15 6 0 10 -7 10 -15z
m-330 -5 c0 -5 -7 -10 -15 -10 -8 0 -15 5 -15 10 0 6 7 10 15 10 8 0 15 -4 15
-10z m1550 -11 c0 -5 -7 -9 -15 -9 -15 0 -20 12 -9 23 8 8 24 -1 24 -14z
m-2301 -2 c8 -10 7 -17 -1 -25 -16 -16 -25 -15 -32 4 -12 30 12 45 33 21z
m365 -14 c9 -24 -9 -39 -29 -23 -12 10 -13 16 -4 26 15 19 25 18 33 -3z m202
-4 c10 -17 -13 -36 -27 -22 -12 12 -4 33 11 33 5 0 12 -5 16 -11z m810 0 c10
-17 -13 -36 -27 -22 -12 12 -4 33 11 33 5 0 12 -5 16 -11z m134 -15 c0 -16
-16 -19 -25 -4 -8 13 4 32 16 25 5 -4 9 -13 9 -21z m619 -26 c30 -10 73 -29
97 -43 52 -30 119 -105 133 -148 10 -29 9 -30 -4 -13 -11 14 -15 16 -15 6 0
-8 -11 2 -25 23 -34 48 -38 47 -15 -5 39 -88 6 -67 -175 107 -117 114 -117
115 4 73z m51 -164 c86 -92 79 -120 -17 -73 -34 16 -50 34 -79 85 -20 36 -42
86 -50 112 l-14 47 47 -50 c25 -27 76 -82 113 -121z m-1074 126 c139 -36 324
-140 410 -232 41 -42 134 -168 134 -180 0 -4 -16 -16 -35 -25 -19 -9 -35 -19
-34 -22 0 -3 28 -29 63 -58 52 -43 65 -61 79 -106 9 -29 17 -57 17 -60 0 -4
-40 -7 -90 -7 -49 0 -90 -2 -90 -5 0 -3 26 -41 58 -84 65 -90 156 -250 147
-259 -3 -3 -20 0 -38 7 -102 42 -153 7 -122 -83 11 -32 11 -36 -5 -36 -9 0
-25 -9 -34 -19 -19 -21 -12 -45 18 -71 9 -7 16 -16 16 -20 0 -4 -160 -6 -355
-6 -195 1 -355 4 -355 7 0 4 7 9 15 13 25 9 18 36 -9 36 -28 0 -31 8 -41 93
-5 40 -3 57 5 57 8 0 10 19 5 65 -4 36 -5 65 -2 65 2 0 21 -7 42 -16 21 -8 48
-13 61 -10 12 3 26 2 29 -4 7 -12 65 -14 65 -2 0 8 89 46 95 40 3 -2 -16 -34
-41 -71 l-45 -67 26 -12 c14 -6 25 -15 25 -19 0 -4 -26 -16 -57 -26 -64 -21
-73 -37 -52 -89 l12 -29 10 26 c8 22 18 28 54 32 31 3 55 14 76 34 41 37 68
33 100 -16 32 -48 71 -91 84 -91 5 0 24 13 43 29 l35 30 -30 -2 c-26 -2 -33 4
-58 51 -28 52 -46 145 -34 177 6 14 9 14 38 0 34 -18 72 -14 107 13 15 12 21
24 16 35 -7 18 -39 23 -49 7 -11 -18 -25 -11 -76 37 l-50 46 31 13 c28 12 35
24 31 48 -1 6 3 20 10 32 43 82 -101 143 -160 68 -15 -19 -25 -23 -44 -19 -31
8 -54 -15 -63 -63 -4 -20 -11 -43 -17 -49 -7 -10 -1 -13 23 -13 39 0 70 24 71
54 0 19 1 18 10 -4 5 -14 17 -31 26 -37 20 -15 28 -9 -90 -72 l-99 -52 -71 36
c-40 19 -85 46 -101 60 -27 25 -27 27 -10 40 15 10 18 26 17 79 -1 75 -11 93
-58 102 -110 20 -180 -93 -105 -168 l31 -30 -38 -43 c-64 -72 -108 -138 -95
-143 7 -2 12 -10 12 -18 0 -28 36 -13 58 24 l22 37 0 -55 c0 -44 4 -58 20 -68
31 -19 24 -37 -21 -57 -39 -18 -40 -20 -34 -54 4 -20 13 -46 21 -58 20 -31 18
-33 -21 -33 -22 0 -38 6 -41 15 -8 20 -53 19 -84 -2 -20 -13 -18 -9 8 18 38
41 44 89 11 89 -31 0 -58 -18 -79 -53 -20 -32 -20 -32 -20 438 0 259 -3 480
-6 493 -5 19 -12 23 -38 20 -29 -3 -31 -5 -34 -50 l-3 -48 -80 0 -80 0 30 43
c94 135 311 270 501 311 101 22 281 20 376 -4z m-1026 -6 c0 -8 -4 -12 -10 -9
-5 3 -10 10 -10 16 0 5 5 9 10 9 6 0 10 -7 10 -16z m1850 -49 c0 -8 -7 -15
-15 -15 -8 0 -15 7 -15 15 0 8 7 15 15 15 8 0 15 -7 15 -15z m-317 -56 c-17
-17 -37 -1 -22 17 8 10 15 12 23 4 7 -7 7 -13 -1 -21z m-1382 -6 c-12 -16 -48
-66 -81 -112 -83 -117 -161 -203 -177 -197 -9 4 -11 1 -7 -6 5 -7 2 -9 -9 -5
-11 4 -14 2 -11 -7 3 -8 0 -17 -7 -22 -8 -4 -10 -3 -5 5 5 8 0 10 -20 7 -17
-3 -31 0 -36 7 -5 8 -8 7 -8 -4 0 -11 -11 -18 -29 -21 -23 -3 -28 -1 -23 11 4
12 -1 11 -19 -4 l-24 -20 18 22 c11 12 16 27 11 34 -5 9 -2 10 9 6 11 -4 14
-2 10 9 -14 37 194 206 357 291 15 8 19 13 9 13 -26 0 -177 -78 -247 -127 -37
-27 -102 -82 -144 -124 -58 -57 -80 -73 -88 -64 -5 6 -6 16 -2 21 4 4 -1 2
-11 -6 -18 -14 -18 -13 -2 25 9 22 23 50 31 62 30 47 -12 11 -56 -47 -24 -33
-50 -62 -57 -64 -8 -3 -18 -16 -23 -28 -18 -45 -11 34 7 87 55 155 307 282
566 284 l89 1 -21 -27z m-864 -130 c-3 -10 -5 -4 -5 12 0 17 2 24 5 18 2 -7 2
-21 0 -30z m1010 -95 c-2 -13 -4 -3 -4 22 0 25 2 35 4 23 2 -13 2 -33 0 -45z
m1857 13 c63 -31 96 -63 110 -107 5 -17 2 -21 -11 -19 -31 3 -67 22 -92 49
-14 14 -31 26 -40 26 -10 0 -7 -8 12 -28 20 -21 24 -31 16 -39 -6 -6 -19 -9
-28 -5 -38 14 -169 97 -205 130 l-39 35 106 -5 c94 -4 113 -8 171 -37z m-2939
-118 c-7 -83 -25 -141 -25 -79 0 35 22 166 27 166 3 0 2 -39 -2 -87z m3344 0
c13 -82 14 -160 4 -149 -4 4 -12 59 -18 122 -12 125 -3 141 14 27z m-3149 -61
c35 -104 48 -199 33 -226 -7 -13 -12 -1 -22 51 -14 81 -49 204 -61 217 -17 17
-70 -162 -90 -304 -5 -36 -13 -81 -18 -100 -9 -31 -10 -27 -11 40 0 41 4 104
9 140 13 79 66 256 87 289 14 23 17 23 28 7 7 -9 27 -60 45 -114z m2557 97
c21 -13 43 -24 49 -24 24 -1 114 -76 114 -96 0 -15 -5 -19 -17 -15 -24 7 -99
23 -143 31 -19 3 -72 15 -117 25 -44 11 -123 23 -175 27 l-93 6 50 23 c130 59
259 68 332 23z m487 -78 c33 -99 53 -189 61 -277 6 -58 4 -72 -8 -77 -12 -5
-16 8 -22 66 -8 78 -44 231 -68 287 l-15 35 -12 -30 c-6 -16 -21 -66 -32 -110
-38 -154 -39 -158 -49 -148 -20 20 33 246 79 337 14 28 15 29 28 11 7 -10 25
-52 38 -94z m-2174 35 c0 -36 -3 -67 -8 -70 -4 -2 -62 -2 -129 1 l-122 6 21
41 c46 89 40 86 144 86 l94 0 0 -64z m17 7 c-3 -10 -5 -2 -5 17 0 19 2 27 5
18 2 -10 2 -26 0 -35z m1404 -47 c104 -26 250 -93 230 -105 -27 -17 -186 32
-286 89 -82 46 -74 48 56 16z m-2320 -67 c10 -40 19 -97 19 -126 0 -49 -2 -53
-24 -53 -13 0 -26 6 -29 13 -2 6 -8 -17 -12 -53 -4 -36 -13 -78 -20 -95 -12
-28 -13 -22 -14 70 -1 55 4 129 9 165 12 72 39 164 47 156 3 -2 13 -37 24 -77z
m916 -71 c-2 -29 -3 -6 -3 52 0 58 1 81 3 53 2 -29 2 -77 0 -105z m2155 -54
c7 -69 8 -109 1 -130 l-11 -29 -11 28 c-6 16 -11 45 -12 65 0 20 -3 31 -6 24
-2 -6 -9 -10 -14 -6 -5 3 -9 -2 -9 -11 0 -9 -6 -15 -12 -12 -21 6 -16 161 7
227 l18 55 19 -55 c10 -30 24 -100 30 -156z m-297 136 c3 -5 1 -10 -4 -10 -6
0 -11 5 -11 10 0 6 2 10 4 10 3 0 8 -4 11 -10z m-2246 -26 c-42 -32 -92 -55
-141 -64 -42 -8 -51 6 -20 33 22 20 128 56 166 57 l30 0 -35 -26z m371 -59 l0
-55 -155 0 c-85 0 -155 4 -155 8 0 5 7 29 16 55 l16 47 139 0 139 0 0 -55z
m-611 -91 c-10 -57 -84 -232 -103 -246 -6 -4 -14 -4 -20 -1 -5 3 -6 1 -3 -4
11 -17 -21 -39 -35 -25 -7 7 -8 12 -2 12 5 0 10 10 11 23 1 12 26 69 55 126
29 57 55 108 57 115 10 29 -89 -119 -129 -194 -25 -48 -54 -89 -66 -94 -15 -7
-26 -26 -35 -65 l-14 -56 -3 42 c-7 94 55 247 131 321 39 38 156 116 164 109
2 -2 -2 -30 -8 -63z m2468 20 c106 -50 190 -154 228 -281 22 -71 19 -96 -5
-48 -11 22 -18 33 -16 24 2 -9 0 -22 -5 -30 -7 -11 -9 -10 -9 5 0 11 -3 16 -7
13 -3 -4 -29 29 -57 72 -48 75 -167 223 -174 216 -4 -4 23 -47 80 -125 49 -69
67 -113 49 -124 -6 -4 -9 -1 -5 7 3 8 0 18 -7 23 -7 4 -10 3 -6 -2 3 -6 2 -16
-4 -24 -7 -13 -9 -12 -9 3 0 9 -4 17 -10 17 -30 0 -125 172 -136 249 -7 42 -6
43 17 36 13 -3 47 -18 76 -31z m-1840 -91 c-2 -21 -4 -4 -4 37 0 41 2 58 4 38
2 -21 2 -55 0 -75z m-17 -8 l0 -65 -90 0 c-49 0 -90 2 -90 5 0 3 14 32 30 65
l30 60 60 0 60 0 0 -65z m-204 8 c-13 -27 -32 -65 -41 -85 -14 -31 -21 -37
-45 -35 -17 1 -26 7 -23 14 3 7 9 11 13 8 5 -3 12 0 16 6 4 8 3 9 -5 5 -16
-11 -24 19 -11 43 17 32 -5 26 -50 -15 l-40 -36 6 33 c12 75 15 80 47 94 18 8
60 14 95 15 l62 0 -24 -47z m1653 37 c49 -14 71 -48 52 -79 -7 -11 -13 -10
-35 4 -29 19 -46 14 -28 -8 7 -8 8 -18 4 -22 -4 -5 -2 -5 5 -1 7 3 14 -2 18
-14 4 -11 11 -17 17 -14 7 4 8 2 4 -5 -4 -6 -12 -9 -17 -5 -12 7 -41 -15 -34
-26 3 -5 0 -12 -6 -16 -7 -4 -9 -3 -5 4 3 6 2 13 -4 17 -6 4 -8 11 -5 16 3 5
0 7 -7 4 -8 -3 -29 24 -55 69 -24 40 -43 76 -43 80 0 10 101 7 139 -4z m139
-32 c18 -18 14 -60 -9 -87 -11 -13 -21 -22 -23 -20 -7 8 -24 104 -20 111 8 12
38 10 52 -4z m-2002 -30 c-4 -18 -10 -48 -13 -65 -7 -42 -15 -41 -36 2 -29 60
-17 95 31 95 22 0 24 -3 18 -32z m-159 -225 c-4 -98 -10 -191 -15 -207 l-8
-28 -14 28 c-7 16 -13 32 -12 37 1 4 -3 7 -8 7 -17 0 -11 107 15 225 l6 30
-15 -33 c-12 -26 -56 -221 -56 -249 0 -3 -6 0 -14 6 -11 9 -15 9 -19 -1 -4 -8
-6 -7 -6 5 -1 9 -5 17 -11 17 -11 0 -17 -20 -29 -95 l-9 -50 -1 42 c-1 57 24
184 48 238 29 66 130 205 149 205 3 0 2 -80 -1 -177z m2350 103 c38 -35 84
-90 103 -122 42 -70 80 -176 79 -224 0 -31 -2 -29 -15 20 -19 71 -29 79 -44
38 -7 -18 -14 -27 -17 -20 -3 6 -10 9 -16 5 -6 -4 -8 0 -4 10 3 9 3 17 -2 19
-4 2 -18 35 -30 73 -13 39 -37 95 -53 125 -30 57 -31 47 -3 -29 21 -57 47
-180 40 -191 -8 -13 -44 -7 -59 10 -7 8 -21 74 -30 145 -10 72 -21 147 -26
168 -4 20 -4 37 1 37 5 0 39 -29 76 -64z m-1777 -36 c0 -47 -3 -60 -15 -60
-10 0 -15 10 -15 30 0 23 -6 33 -25 40 -33 13 -105 -3 -162 -35 l-43 -23 26
46 c14 26 28 50 31 55 2 4 49 7 104 7 l99 0 0 -60z m1969 -23 c8 -10 7 -14 -2
-14 -8 0 -14 6 -14 14 0 7 1 13 2 13 2 0 8 -6 14 -13z m-2044 -19 c-12 -42
-62 -103 -86 -106 -22 -3 -21 -1 11 28 32 28 33 30 10 24 -14 -3 -42 -14 -62
-24 -20 -10 -39 -15 -42 -13 -7 7 19 56 38 72 21 17 85 40 114 41 20 0 22 -4
17 -22z m1415 -51 c20 -19 29 -22 43 -13 13 8 24 7 44 -4 33 -19 53 -51 36
-57 -7 -2 -10 -10 -7 -18 7 -18 -11 -14 -63 13 -50 26 -50 26 -50 7 0 -8 4
-15 9 -15 4 0 8 -7 8 -16 0 -21 -16 -9 -51 38 -51 71 -28 120 31 65z m-1340
-27 c0 -23 0 -23 -35 -10 -31 12 -24 30 11 30 17 0 24 -5 24 -20z m-50 -45 c0
-2 -8 -17 -17 -33 -14 -22 -25 -29 -47 -27 -16 0 -31 5 -33 11 -2 6 -16 10
-31 9 -23 -2 -23 -2 -3 2 19 4 21 7 10 14 -9 6 -2 7 20 2 23 -4 32 -3 27 5 -3
6 3 12 16 15 35 7 58 8 58 2z m-306 -62 c-14 -79 -38 -116 -104 -164 -33 -24
-42 -27 -46 -14 -7 16 31 87 79 148 l29 38 -28 -13 c-16 -6 -35 -16 -42 -21
-9 -7 -11 -6 -7 5 5 14 46 36 95 52 29 9 31 6 24 -31z m348 5 c-7 -7 -12 -8
-12 -2 0 6 3 14 7 17 3 4 9 5 12 2 2 -3 -1 -11 -7 -17z m438 -17 c19 -38 19
-40 1 -46 -10 -3 -32 -4 -50 -3 -27 2 -31 6 -31 33 0 21 7 33 23 41 34 17 35
17 57 -25z m881 20 c20 -12 27 -21 19 -26 -9 -6 -9 -10 1 -16 10 -6 6 -9 -12
-9 -23 0 -54 25 -73 58 -11 19 29 15 65 -7z m-1316 -61 c-3 -5 -12 -10 -20
-10 -8 0 -17 5 -20 10 -4 6 5 10 20 10 15 0 24 -4 20 -10z m1650 -16 c35 -16
64 -51 70 -85 2 -10 0 -19 -6 -19 -5 0 -9 5 -9 11 0 5 -4 8 -9 5 -9 -6 -35 21
-70 72 -25 36 -22 38 24 16z m-1520 -100 c101 -18 187 -42 395 -109 174 -56
333 -98 465 -121 117 -20 120 -20 137 25 11 27 31 49 69 75 29 19 55 33 58 29
4 -3 1 -8 -6 -10 -7 -2 -9 -11 -6 -19 3 -8 -1 -14 -8 -14 -23 0 -78 -44 -90
-73 -6 -15 -9 -40 -6 -56 l6 -28 -77 13 c-201 33 -275 48 -384 80 -65 19 -140
43 -168 54 -266 105 -558 149 -750 114 -14 -3 4 7 40 21 36 14 69 31 75 36 12
12 134 4 250 -17z m1188 7 l39 -18 -32 -7 c-18 -3 -227 -6 -465 -6 l-433 0
-63 25 -64 24 490 0 c451 0 493 -1 528 -18z m202 -61 l20 -9 -20 0 c-16 -1
-17 -3 -5 -10 8 -6 17 -8 20 -6 3 2 4 -12 2 -31 -4 -31 -12 -39 -36 -35 -5 1
-6 -5 -2 -14 6 -17 -14 -45 -33 -45 -6 0 -8 -8 -4 -17 3 -10 3 -15 -1 -11 -5
4 -20 2 -34 -3 -15 -6 -23 -7 -20 -3 13 12 -12 44 -35 44 -30 0 -47 -18 -47
-48 0 -15 -4 -21 -11 -16 -7 4 -25 7 -41 6 -18 0 -26 3 -22 10 4 7 2 8 -4 4
-6 -4 -9 -13 -6 -20 3 -8 2 -16 -3 -19 -5 -3 -10 5 -11 18 -2 25 26 41 61 36
13 -2 17 5 17 27 0 16 9 41 20 54 21 28 77 42 98 26 9 -8 12 -5 12 12 0 28 27
60 49 59 9 0 25 -4 36 -9z m-2305 -100 c0 -10 -4 -21 -8 -24 -5 -3 -8 5 -7 17
1 12 -5 28 -13 36 -12 12 -15 12 -23 0 -10 -16 -12 1 -3 25 5 14 10 12 30 -9
13 -14 24 -35 24 -45z m950 49 c55 -11 186 -49 292 -85 362 -122 560 -161
1008 -200 57 -5 62 -7 42 -18 -13 -7 -19 -16 -15 -20 20 -20 -315 21 -530 65
-166 34 -259 60 -617 173 -151 48 -258 66 -394 66 -101 0 -252 -22 -309 -45
-13 -6 -10 1 9 20 65 65 313 86 514 44z m858 14 c-64 -2 -172 -2 -240 0 -68 1
-15 3 117 3 132 0 187 -2 123 -3z m-35 -30 c-23 -2 -64 -2 -90 0 -26 2 -7 3
42 3 50 0 71 -1 48 -3z m1021 -40 c4 -10 4 -14 0 -10 -4 4 -13 2 -20 -4 -8 -7
-14 -6 -20 2 -4 8 -3 9 5 5 6 -4 14 0 17 8 8 20 10 20 18 -1z m-1888 -28 c97
-17 227 -53 432 -121 159 -53 281 -85 440 -114 64 -12 124 -24 132 -27 17 -6
32 -8 140 -17 41 -4 91 -10 110 -13 l35 -5 -49 -19 c-47 -19 -53 -19 -175 -4
-260 33 -368 61 -770 199 -129 44 -238 67 -386 81 -74 7 -296 -21 -386 -48
-79 -24 -82 -2 -5 33 145 64 313 84 482 55z m-785 -112 c13 -16 12 -17 -3 -4
-10 7 -18 15 -18 17 0 8 8 3 21 -13z m849 1 c52 -9 182 -47 294 -86 111 -38
235 -78 276 -90 209 -57 333 -86 373 -87 12 -1 16 -5 11 -13 -6 -10 -5 -10 7
-1 16 13 72 6 63 -8 -3 -5 -19 -9 -35 -9 -17 0 -28 -4 -24 -10 4 -6 -5 -8 -22
-5 -15 3 -39 7 -53 8 -14 2 -32 7 -40 10 -8 3 -39 8 -69 12 -29 3 -200 55
-380 115 -206 68 -355 112 -404 119 -109 15 -238 13 -332 -5 -44 -9 -97 -16
-118 -15 -20 1 -46 -3 -57 -9 -14 -7 -20 -7 -20 0 0 5 7 10 16 10 8 0 12 5 9
10 -3 6 -1 10 6 10 7 0 20 6 28 14 47 42 305 58 471 30z m-809 -51 c13 -16 12
-17 -3 -4 -10 7 -18 15 -18 17 0 8 8 3 21 -13z m874 -63 c90 -21 218 -61 345
-108 69 -25 152 -55 185 -67 33 -12 67 -25 75 -28 49 -18 83 -26 91 -21 5 3 9
0 9 -5 0 -11 -39 -15 -113 -11 -47 2 -139 34 -129 45 4 4 1 5 -6 1 -6 -4 -72
15 -145 43 -244 91 -286 101 -479 110 -105 4 -175 4 -179 -2 -4 -6 -13 -6 -24
0 -10 6 -35 7 -59 2 -22 -4 -42 -6 -44 -4 -4 4 65 36 88 40 11 2 28 8 37 14
24 13 283 6 348 -9z m-117 -124 c9 -2 -4 -4 -30 -3 -60 1 -83 13 -42 22 16 4
34 8 39 9 6 2 11 -3 13 -10 2 -7 11 -15 20 -18z m136 3 c-2 -4 3 -10 12 -13 9
-4 14 -9 11 -13 -4 -3 -13 0 -22 7 -8 7 -25 10 -40 6 -15 -4 -25 -2 -25 4 0 7
-9 9 -22 5 -15 -4 -19 -3 -10 3 15 10 103 12 96 1z m261 -89 c3 -5 1 -10 -4
-10 -6 0 -11 5 -11 10 0 6 2 10 4 10 3 0 8 -4 11 -10z m70 -20 c-3 -5 3 -10
14 -10 11 0 23 -4 26 -10 8 -13 3 -13 -30 0 -14 5 -23 14 -20 20 3 5 8 10 11
10 3 0 2 -4 -1 -10z"/>
<path d="M3159 3701 c15 -16 33 -47 39 -69 14 -45 16 -146 3 -138 -4 3 -6 17
-3 31 2 15 0 25 -7 25 -6 0 -12 -19 -13 -42 -2 -68 1 -60 -45 -112 -7 -8 -9
-17 -5 -21 4 -5 -3 -6 -15 -3 -16 5 -20 2 -16 -10 5 -12 2 -14 -12 -9 -15 6
-16 5 -5 -8 10 -12 10 -15 -2 -15 -8 0 -23 -9 -33 -20 -10 -11 -23 -17 -29
-13 -6 4 -2 -4 9 -18 13 -15 14 -19 3 -11 -9 7 -19 9 -22 4 -8 -14 40 -32 85
-32 58 0 99 21 146 74 54 61 77 130 70 207 -5 57 -33 124 -53 124 -5 0 -29 19
-53 43 -49 47 -84 58 -42 13z m110 -101 c0 -10 -3 -8 -9 5 -12 27 -12 43 0 25
5 -8 9 -22 9 -30z m8 -42 c-3 -8 -6 -5 -6 6 -1 11 2 17 5 13 3 -3 4 -12 1 -19z"/>
<path d="M2265 2616 c-14 -10 -26 -11 -43 -5 -27 11 -57 -2 -72 -31 -11 -20 3
-29 15 -10 9 14 47 12 68 -4 16 -12 21 -11 42 10 19 19 31 23 52 19 l28 -6
-24 20 c-27 25 -40 26 -66 7z"/>
<path d="M2702 2578 c-17 -17 -15 -29 3 -22 8 4 26 -1 40 -10 23 -15 27 -15
49 -1 13 8 31 13 40 9 12 -5 15 -2 10 10 -8 21 -42 30 -60 15 -11 -9 -18 -9
-26 -1 -15 15 -41 15 -56 0z"/>
<path d="M2786 2414 c-22 -22 -20 -25 10 -18 18 5 34 0 55 -15 l29 -22 29 22
c21 15 37 20 55 15 31 -8 35 9 7 24 -26 14 -64 13 -79 -2 -9 -9 -15 -9 -24 0
-17 17 -64 15 -82 -4z"/>
<path d="M2006 1718 c-19 -27 -20 -58 -3 -82 13 -17 14 -17 30 8 18 26 21 53
11 80 -8 22 -20 20 -38 -6z"/>
<path d="M1405 1409 c-4 -6 -5 -12 -2 -15 2 -3 7 2 10 11 7 17 1 20 -8 4z"/>
<path d="M3412 1295 c0 -16 2 -22 5 -12 2 9 2 23 0 30 -3 6 -5 -1 -5 -18z"/>
<path d="M4066 1472 c-3 -5 1 -9 9 -9 8 0 12 4 9 9 -3 4 -7 8 -9 8 -2 0 -6 -4
-9 -8z"/>
<path d="M976 1367 c3 -10 9 -15 12 -12 3 3 0 11 -7 18 -10 9 -11 8 -5 -6z"/>
</g>
</svg>
